<svg width="85" height="85" viewBox="0 0 85 85" fill="none" xmlns="http://www.w3.org/2000/svg">
    <path
        d="M42.5 75.76c18.37 0 33.26-14.89 33.26-33.26 0-18.37-14.89-33.26-33.26-33.26-18.37 0-33.26 14.89-33.26 33.26 0 18.37 14.89 33.26 33.26 33.26z"
        fill="none" />
    <path
        d="M42.5 75.76c18.37 0 33.26-14.89 33.26-33.26 0-18.37-14.89-33.26-33.26-33.26-18.37 0-33.26 14.89-33.26 33.26 0 18.37 14.89 33.26 33.26 33.26z"
        fill="none" fill-opacity="0" />
    <path fill-rule="evenodd" clip-rule="evenodd"
        d="M44.158 32.438l-1.73-9.807c-.272-1.546-1.733-2.581-3.262-2.313-1.53.27-2.548 1.743-2.275 3.29l1.729 9.806 5.538-.976z"
        fill="none" />
    <path clip-rule="evenodd"
        d="M44.158 32.245l-1.73-9.806c-.272-1.547-1.732-2.582-3.262-2.313-1.53.27-2.548 1.742-2.275 3.29l1.729 9.806 5.538-.977z"
        stroke="red" stroke-linejoin="round" />
    <path
        d="M41.618 55.425a.431.431 0 0 0-.351.45c.01.16.03.32.057.478.442 2.318 2.643 3.854 4.94 3.449 2.297-.405 3.84-2.601 3.462-4.93a4.422 4.422 0 0 0-.11-.469.431.431 0 0 0-.483-.303l-7.515 1.325z"
        fill="red" fill-opacity=".4" />
    <path clip-rule="evenodd"
        d="M41.617 55.232a.431.431 0 0 0-.35.451c.01.16.029.32.057.477.442 2.318 2.642 3.854 4.94 3.45 2.297-.406 3.84-2.602 3.462-4.931a4.417 4.417 0 0 0-.11-.468.431.431 0 0 0-.484-.304l-7.514 1.325z"
        stroke="red" stroke-linejoin="round" />
    <path fill-rule="evenodd" clip-rule="evenodd"
        d="M58.352 48.66a2.589 2.589 0 0 1-1.402-1.869l-1.459-8.27C54.147 30.898 47.4 25.69 40.45 26.915 33.5 28.14 28.94 35.341 30.286 42.966l1.457 8.266a2.59 2.59 0 0 1-.68 2.236l27.29-4.808z"
        fill="fff" />
    <path clip-rule="evenodd"
        d="M58.352 48.467A2.59 2.59 0 0 1 56.95 46.6l-1.458-8.27c-1.345-7.625-8.093-12.832-15.042-11.607-6.95 1.225-11.509 8.427-10.164 16.051l1.457 8.267a2.59 2.59 0 0 1-.68 2.236l27.29-4.809z"
        stroke="red" stroke-linejoin="round" />
    <path fill-rule="evenodd" clip-rule="evenodd"
        d="M62.161 50.291a2.28 2.28 0 0 1-.367 1.694c-.34.492-.861.826-1.447.93l-29.446 5.191c-1.22.215-2.385-.61-2.602-1.844-.218-1.233.594-2.408 1.814-2.623l29.446-5.192a2.229 2.229 0 0 1 1.677.379c.488.346.821.873.925 1.465z"
        fill="fff" />
    <path clip-rule="evenodd"
        d="M62.161 50.099a2.281 2.281 0 0 1-.368 1.693c-.34.492-.86.826-1.446.93L30.9 57.913c-1.22.215-2.384-.61-2.602-1.844-.217-1.234.595-2.408 1.815-2.623l29.446-5.193a2.229 2.229 0 0 1 1.677.38c.488.345.82.872.925 1.465z"
        stroke="red" stroke-linejoin="round" />
    <path
        d="M23.182 57.726a9.821 9.821 0 0 0 4.525 4.818M22.739 61.583a10.217 10.217 0 0 0 5.858 3.408M54.93 25.062c1.827.56 3.189 2.022 3.71 5.115M54.949 22.575c1.91.039 3.62 1.073 4.967 3.904"
        stroke="red" stroke-linejoin="round" />
</svg>