<?xml version="1.0" encoding="UTF-8" standalone="no" ?>
<!DOCTYPE svg PUBLIC "-//W3C//DTD SVG 1.1//EN" "http://www.w3.org/Graphics/SVG/1.1/DTD/svg11.dtd">
<svg xmlns="http://www.w3.org/2000/svg" xmlns:xlink="http://www.w3.org/1999/xlink" version="1.1" width="85" height="85" viewBox="0 0 85 85" xml:space="preserve">
<desc>Created with Fabric.js 5.2.4</desc>
<defs>
</defs>
<g transform="matrix(1 0 0 1 42.5 42.5)" id="ef185342-8a03-4ec6-a193-0728b1d6fb4f"  >
<rect style="stroke: none; stroke-width: 1; stroke-dasharray: none; stroke-linecap: butt; stroke-dashoffset: 0; stroke-linejoin: miter; stroke-miterlimit: 4; fill: rgb(255,255,255); fill-rule: nonzero; opacity: 1; visibility: hidden;" vector-effect="non-scaling-stroke"  x="-42.5" y="-42.5" rx="0" ry="0" width="85" height="85" />
</g>
<g transform="matrix(0 0 0 0 0 0)" id="feeec68b-04df-45af-9227-161e202b9b15"  >
</g>
<g transform="matrix(0.08 0 0 0.08 42.5 42.5)"  >
<g style="" vector-effect="non-scaling-stroke"   >
		<g transform="matrix(0.13 0 0 -0.13 -6.07 -7.17)"  >
<path style="stroke: none; stroke-width: 1; stroke-dasharray: none; stroke-linecap: butt; stroke-dashoffset: 0; stroke-linejoin: miter; stroke-miterlimit: 4; fill: rgb(237,79,79); fill-rule: nonzero; opacity: 1;" vector-effect="non-scaling-stroke"  transform=" translate(-1884.3, -2371.36)" d="M 1845 4519 C 1608 4491 1407 4333 1315 4103 C 1281 4019 1266 3895 1280 3808 C 1292 3729 1319 3645 1350 3593 C 1361 3574 1370 3553 1370 3547 C 1370 3540 1338 3503 1299 3465 C 1179 3346 1099 3208 1059 3047 C 1041 2978 1037 2923 1033 2704 C 1027 2412 1030 2388 1086 2342 L 1120 2314 L 605 1800 C 322 1517 83 1271 74 1252 C 64 1231 61 1208 65 1192 C 69 1174 236 1000 538 698 C 1025 210 1029 206 1092 225 C 1104 229 1203 319 1310 426 L 1505 619 L 2072 718 C 2502 794 2647 823 2672 838 C 2690 850 2910 1065 3161 1317 C 3659 1818 3666 1826 3696 1972 C 3745 2203 3596 2439 3357 2512 C 3264 2540 3163 2534 3060 2494 C 2990 2467 2975 2455 2834 2318 C 2751 2236 2677 2170 2668 2170 C 2659 2170 2646 2177 2639 2186 C 2619 2211 2556 2248 2481 2281 L 2415 2309 L 2545 2310 C 2689 2310 2726 2321 2764 2373 C 2784 2400 2785 2414 2785 2663 C 2785 2834 2780 2949 2772 2993 C 2739 3168 2646 3342 2516 3470 C 2480 3505 2450 3540 2450 3547 C 2450 3554 2459 3574 2470 3592 C 2511 3659 2542 3779 2543 3875 C 2544 3987 2529 4053 2480 4155 C 2397 4328 2249 4451 2070 4499 C 1977 4523 1922 4528 1845 4519 z M 2055 4395 C 2141 4372 2206 4333 2281 4260 C 2388 4155 2434 4040 2433 3880 C 2433 3748 2398 3649 2318 3551 L 2291 3516 L 2343 3481 C 2421 3429 2521 3324 2568 3245 C 2657 3094 2680 2968 2680 2638 L 2680 2430 L 1910 2430 L 1140 2430 L 1140 2643 C 1140 2969 1163 3093 1252 3245 C 1298 3323 1411 3442 1481 3487 L 1527 3516 L 1503 3545 C 1329 3760 1347 4084 1545 4268 C 1619 4338 1683 4374 1768 4394 C 1845 4413 1983 4413 2055 4395 z M 3328 2406 C 3436 2377 3520 2305 3568 2201 C 3589 2155 3594 2130 3594 2065 C 3594 1971 3581 1920 3541 1859 C 3524 1835 3311 1615 3067 1372 L 2623 928 L 2041 826 L 1459 724 L 1259 524 L 1060 325 L 620 765 C 378 1007 180 1209 180 1215 C 180 1221 400 1445 668 1713 L 1156 2201 L 1781 2198 C 2397 2195 2406 2195 2459 2173 C 2535 2142 2585 2104 2627 2048 L 2663 1998 L 2844 2178 C 2951 2284 3042 2367 3067 2379 C 3150 2420 3239 2429 3328 2406 z" stroke-linecap="round" />
</g>
		<g transform="matrix(0.13 0 0 -0.13 2.33 -203.1)"  >
<path style="stroke: none; stroke-width: 1; stroke-dasharray: none; stroke-linecap: butt; stroke-dashoffset: 0; stroke-linejoin: miter; stroke-miterlimit: 4; fill: rgb(237,79,79); fill-rule: nonzero; opacity: 1;" vector-effect="non-scaling-stroke"  transform=" translate(-1908.56, -3887.79)" d="M 1811 4142 C 1757 4121 1689 4056 1660 3996 C 1580 3830 1721 3614 1910 3616 C 2053 3617 2180 3741 2180 3878 C 2180 3958 2162 4006 2111 4063 C 2029 4153 1918 4182 1811 4142 z" stroke-linecap="round" />
</g>
		<g transform="matrix(0.13 0 0 -0.13 1.72 -87.22)"  >
<path style="stroke: none; stroke-width: 1; stroke-dasharray: none; stroke-linecap: butt; stroke-dashoffset: 0; stroke-linejoin: miter; stroke-miterlimit: 4; fill: rgb(237,79,79); fill-rule: nonzero; opacity: 1;" vector-effect="non-scaling-stroke"  transform=" translate(-1909.89, -3016.93)" d="M 1765 3336 C 1669 3305 1635 3286 1572 3226 C 1501 3160 1444 3072 1419 2990 C 1403 2936 1400 2901 1402 2800 L 1405 2675 L 1910 2675 L 2415 2675 L 2418 2800 C 2421 2947 2404 3021 2342 3115 C 2213 3314 1975 3405 1765 3336 z" stroke-linecap="round" />
</g>
		<g transform="matrix(0.13 0 0 -0.13 2.09 124.03)"  >
<path style="stroke: none; stroke-width: 1; stroke-dasharray: none; stroke-linecap: butt; stroke-dashoffset: 0; stroke-linejoin: miter; stroke-miterlimit: 4; fill: rgb(237,79,79); fill-rule: nonzero; opacity: 1;" vector-effect="non-scaling-stroke"  transform=" translate(-1935.24, -1422.5)" d="M 2861 1846 C 2564 1551 2530 1521 2475 1499 C 2416 1475 2410 1475 2027 1472 L 1639 1469 L 1642 1592 L 1645 1715 L 2010 1720 C 2395 1725 2400 1726 2429 1772 C 2445 1797 2446 1861 2431 1889 C 2424 1901 2404 1920 2387 1930 C 2356 1949 2332 1950 1810 1950 L 1265 1950 L 895 1580 L 525 1210 L 792 943 L 1060 675 L 1202 816 L 1345 957 L 1915 1055 L 2485 1153 L 2904 1569 C 3151 1815 3328 1999 3336 2018 C 3369 2093 3312 2170 3224 2170 C 3188 2170 3171 2155 2861 1846 z" stroke-linecap="round" />
</g>
</g>
</g>
<g transform="matrix(0 0 0 0 0 0)"  >
<g style=""   >
</g>
</g>
</svg>