<svg xmlns="http://www.w3.org/2000/svg" width="19.227" height="22.726" viewBox="0 0 19.227 22.726">
  <path id="bookmark" d="M273.3,129.923H257.923v18.656l6.354-6.1,1.337-1.277,1.337,1.277,6.354,6.1Zm.18-1.923a1.66,1.66,0,0,1,.661.135,1.693,1.693,0,0,1,.789.616,1.593,1.593,0,0,1,.293.931v19.362a1.593,1.593,0,0,1-.293.931,1.749,1.749,0,0,1-1.45.736,1.786,1.786,0,0,1-1.247-.481l-6.624-6.369-6.624,6.369a1.79,1.79,0,0,1-1.247.5,1.661,1.661,0,0,1-.661-.135,1.693,1.693,0,0,1-.789-.616,1.593,1.593,0,0,1-.293-.931V129.682a1.594,1.594,0,0,1,.293-.931,1.693,1.693,0,0,1,.789-.616,1.66,1.66,0,0,1,.661-.135Z" transform="translate(-256 -128)" fill="#cfdce8"/>
</svg>
