<svg id="edit_black_24dp" xmlns="http://www.w3.org/2000/svg" width="14" height="14" viewBox="0 0 14 14">
  <path id="Path_2566" data-name="Path 2566" d="M0,0H14V14H0Z" fill="none"/>
  <path id="Path_2567" data-name="Path 2567" d="M3,11.434v1.773a.289.289,0,0,0,.292.292H5.065a.274.274,0,0,0,.2-.087l6.37-6.364L9.452,4.86,3.088,11.224a.286.286,0,0,0-.088.21ZM13.331,5.356a.581.581,0,0,0,0-.822L11.966,3.168a.581.581,0,0,0-.822,0L10.076,4.236l2.188,2.188,1.068-1.067Z" transform="translate(-1.25 -1.249)"/>
</svg>
