<svg id="email_black_24dp" xmlns="http://www.w3.org/2000/svg" width="18.911" height="18.911" viewBox="0 0 18.911 18.911">
  <path id="Path_2562" data-name="Path 2562" d="M0,0H18.911V18.911H0Z" fill="none"/>
  <path id="Path_2563" data-name="Path 2563" d="M16.184,4H3.576A1.574,1.574,0,0,0,2.008,5.576L2,15.032a1.581,1.581,0,0,0,1.576,1.576H16.184a1.581,1.581,0,0,0,1.576-1.576V5.576A1.581,1.581,0,0,0,16.184,4Zm-.315,3.349L10.3,10.832a.8.8,0,0,1-.835,0L3.891,7.349A.669.669,0,1,1,4.6,6.214l5.279,3.3,5.279-3.3a.669.669,0,1,1,.709,1.135Z" transform="translate(-0.424 -0.848)"/>
</svg>
