<svg id="linkedin" xmlns="http://www.w3.org/2000/svg" width="26.103" height="26.268" viewBox="0 0 26.103 26.268">
  <path id="Path_2706" data-name="Path 2706" d="M213.882,3.665a1.906,1.906,0,0,1,1.929-1.882h22.244a1.906,1.906,0,0,1,1.929,1.882V26.17a1.906,1.906,0,0,1-1.929,1.881H215.811a1.906,1.906,0,0,1-1.929-1.881V3.664Z" transform="translate(-213.882 -1.783)" fill="#069"/>
  <path id="Path_2709" data-name="Path 2709" d="M228.906,32.162V20.3h-3.943V32.162h3.943Zm-1.971-13.481a2.2,2.2,0,1,0-.026,0h.025Zm4.153,13.481h3.942V25.539a2.7,2.7,0,0,1,.13-.962,2.158,2.158,0,0,1,2.023-1.442c1.426,0,2,1.088,2,2.682v6.345h3.942v-6.8c0-3.643-1.945-5.339-4.539-5.339a3.928,3.928,0,0,0-3.579,2h.026V20.3h-3.942c.051,1.113,0,11.862,0,11.862Z" transform="translate(-220.993 -10.173)" fill="#fff"/>
</svg>
