<svg xmlns="http://www.w3.org/2000/svg" width="118.702" height="39.221" viewBox="0 0 118.702 39.221">
  <g id="Group_4" data-name="Group 4" transform="translate(-79 -9.063)">
    <g id="recruitment.ie-logo-01_1_" data-name="recruitment.ie-logo-01 (1)" transform="translate(79 9.063)">
      <g id="Group_1" data-name="Group 1" transform="translate(0)">
        <path id="Path_1" data-name="Path 1" d="M82.317,5.869a.9.9,0,0,1,.91-.889h.062c4.424,0,8.848-.021,13.251.021a23.344,23.344,0,0,1,6.739.91,9.7,9.7,0,0,1,6.967,7.4,12.077,12.077,0,0,1-3.1,11.763,10.977,10.977,0,0,1-4.92,2.873,1.424,1.424,0,0,1-.972-.1,61.449,61.449,0,0,0-18.026-7.111c-.641-.165-.951-.351-.93-1.1.041-4.589.021-9.158.021-13.768Zm8.269,14.76a.9.9,0,0,0,.889.91c2.315.021,4.569.124,6.822-.062a3.888,3.888,0,0,0,3.928-3.8c.31-2.563-.786-4.961-3.928-5.334-2.191-.248-4.424-.165-6.636-.227h-.186a.9.9,0,0,0-.868.91v7.607Z" transform="translate(-66.709 -4.975)" fill="#ed1c24"/>
        <path id="Path_2" data-name="Path 2" d="M29.888,95.213H23.417a.918.918,0,0,1-.91-.91v-.062c0-5.6-.021-11.2,0-16.807a1.16,1.16,0,0,0-.765-1.261Q14.58,73.042,7.4,69.869a2.924,2.924,0,0,1-.5-.269c10.006,1.075,19.825,2.915,28.942,7.38A33.069,33.069,0,0,1,47.4,85.787a18.445,18.445,0,0,1,4.01,8.186.455.455,0,0,1,.021.165.912.912,0,0,1-.91,1.034h-8.29a.908.908,0,0,1-.889-.7c-1.22-5.271-4.961-8.579-9.117-11.783a.912.912,0,0,0-1.468.724V94.345A.847.847,0,0,1,29.888,95.213Z" transform="translate(-6.9 -56.24)" fill="#c12128"/>
      </g>
      <g id="Group_2" data-name="Group 2" transform="translate(47.195 24.833)">
        <path id="Path_3" data-name="Path 3" d="M237.371,128.429v3.556h5.251v2.171h-5.251v3.866h6.1v2.171H235.2V126.3h8.269v2.15h-6.1Z" transform="translate(-235.2 -126.052)" fill="#414042"/>
        <path id="Path_4" data-name="Path 4" d="M283,132.294a7.262,7.262,0,0,1,7.173-7.194,6.977,6.977,0,0,1,4.837,2.129l-1.261,1.716a5.142,5.142,0,0,0-3.6-1.612,4.983,4.983,0,1,0,3.618,8.31l1.261,1.757a6.646,6.646,0,0,1-4.8,2.088A7.275,7.275,0,0,1,283,132.294Z" transform="translate(-273.118 -125.1)" fill="#414042"/>
        <path id="Path_5" data-name="Path 5" d="M357.049,140.192l-3.742-5.375h-1.716v5.375H349.4V126.3h4.321a4.6,4.6,0,0,1,4.713,4.465,4.058,4.058,0,0,1-2.749,3.866l4.052,5.561ZM353.783,133a2.38,2.38,0,0,0,2.4-2.295,2.318,2.318,0,0,0-2.4-2.253h-2.191V133Z" transform="translate(-325.792 -126.052)" fill="#414042"/>
        <path id="Path_6" data-name="Path 6" d="M402.9,134.841V126.2h2.191v8.641a3.08,3.08,0,1,0,6.14,0v-8.62h2.191v8.62a5.267,5.267,0,1,1-10.522,0Z" transform="translate(-368.232 -125.973)" fill="#414042"/>
        <path id="Path_7" data-name="Path 7" d="M466,126.3h2.191v13.892H466Z" transform="translate(-418.288 -126.052)" fill="#414042"/>
        <path id="Path_8" data-name="Path 8" d="M494.633,128.371h-3.721v11.742h-2.191V128.371H485V126.2h9.633Z" transform="translate(-433.36 -125.973)" fill="#414042"/>
      </g>
      <g id="Group_3" data-name="Group 3" transform="translate(107.373 30.27)">
        <path id="Path_9" data-name="Path 9" d="M526.3,182.84a1.244,1.244,0,0,1,1.24-1.24,1.258,1.258,0,0,1,1.24,1.24,1.226,1.226,0,0,1-1.24,1.22A1.24,1.24,0,0,1,526.3,182.84Z" transform="translate(-526.3 -175.357)" fill="#6d6e71"/>
        <path id="Path_10" data-name="Path 10" d="M541.7,151.5h1.364v8.62H541.7Z" transform="translate(-538.516 -151.479)" fill="#6d6e71"/>
        <path id="Path_11" data-name="Path 11" d="M557.564,152.744v2.212h3.266V156.3h-3.266v2.377h3.783v1.344H556.2V151.4h5.148v1.323h-3.783Z" transform="translate(-550.019 -151.4)" fill="#6d6e71"/>
      </g>
    </g>
  </g>
</svg>
