<svg xmlns="http://www.w3.org/2000/svg" width="18.773" height="22.528" viewBox="0 0 18.773 22.528">
  <g id="notification_1_" data-name="notification (1)" transform="translate(-42.675)">
    <g id="Group_208" data-name="Group 208" transform="translate(42.675)">
      <g id="Group_207" data-name="Group 207">
        <path id="Path_522" data-name="Path 522" d="M61.382,19,59.77,16.315a7.98,7.98,0,0,1-1.138-4.106V9.856a6.579,6.579,0,0,0-4.693-6.294V1.877a1.877,1.877,0,1,0-3.755,0V3.562a6.579,6.579,0,0,0-4.693,6.294v2.353a7.985,7.985,0,0,1-1.137,4.1L42.742,19a.47.47,0,0,0,.4.712H60.979a.469.469,0,0,0,.4-.711Z" transform="translate(-42.675)" fill="#707070"/>
      </g>
    </g>
    <g id="Group_210" data-name="Group 210" transform="translate(49.105 20.651)">
      <g id="Group_209" data-name="Group 209">
        <path id="Path_523" data-name="Path 523" d="M188.815,469.333a3.266,3.266,0,0,0,5.912,0Z" transform="translate(-188.815 -469.333)" fill="#707070"/>
      </g>
    </g>
  </g>
</svg>
