<svg id="Component_32" data-name="Component 32" xmlns="http://www.w3.org/2000/svg" width="16" height="16" viewBox="0 0 16 16">
  <rect id="Rectangle_1829" data-name="Rectangle 1829" width="16" height="16" fill="none"/>
  <g id="Group_2545" data-name="Group 2545" transform="translate(2.107 1.972)">
    <g id="Path_1315" data-name="Path 1315" fill="none">
      <path d="M5.237,0A5.237,5.237,0,1,1,0,5.237,5.237,5.237,0,0,1,5.237,0Z" stroke="none"/>
      <path d="M 5.236866474151611 1.499996185302734 C 3.176346302032471 1.499996185302734 1.499996185302734 3.176346302032471 1.499996185302734 5.236866474151611 C 1.499996185302734 7.297386169433594 3.176346302032471 8.973736763000488 5.236866474151611 8.973736763000488 C 7.297386169433594 8.973736763000488 8.973736763000488 7.297386169433594 8.973736763000488 5.236866474151611 C 8.973736763000488 3.176346302032471 7.297386169433594 1.499996185302734 5.236866474151611 1.499996185302734 M 5.236866474151611 -3.814697265625e-06 C 8.129106521606445 -3.814697265625e-06 10.47373676300049 2.344626426696777 10.47373676300049 5.236866474151611 C 10.47373676300049 8.129106521606445 8.129106521606445 10.47373676300049 5.236866474151611 10.47373676300049 C 2.344626426696777 10.47373676300049 -3.814697265625e-06 8.129106521606445 -3.814697265625e-06 5.236866474151611 C -3.814697265625e-06 2.344626426696777 2.344626426696777 -3.814697265625e-06 5.236866474151611 -3.814697265625e-06 Z" stroke="none" fill="#6b6b6b"/>
    </g>
    <path id="Path_1188" data-name="Path 1188" d="M-1895.42-1888l2.8,2.826" transform="translate(1904.407 1896.379)" fill="none" stroke="#6b6b6b" stroke-width="1.5"/>
  </g>
</svg>
